<svg id="图层_1" data-name="图层 1" xmlns="http://www.w3.org/2000/svg" viewBox="0 0 335.36 359.35" fill="#fff"><title>trash</title><path d="M268.63,293.33c-7.79,0-15.13,0-22.47,0-8,0-13.41-4.86-13.45-11.91s5.38-12,13.31-12q38.91,0,77.84,0h4.65c0-1.71,0-3.28,0-4.84.19-8.09-.38-16.29.8-24.24,1.63-10.91,11.47-18.72,22.53-18.77q48.47-.19,96.93,0A23.63,23.63,0,0,1,472.19,245c.15,8,0,15.93,0,24.42h4.17q39.48,0,79,0c9.11,0,15,8.22,11.87,16.3a12,12,0,0,1-11.4,7.61c-7.72.07-15.45,0-23.7,0v4.88q0,119.39,0,238.76c0,21.13-12.6,37.68-32.45,42.52a45.47,45.47,0,0,1-10.73,1.23q-88.32.1-176.64,0c-25.34,0-43.64-18.33-43.65-43.67q0-119.21,0-238.39Zm23.95.16v3.62q0,119.94,0,239.86c0,12.37,7.46,19.84,19.76,19.84h175.5c13.07,0,20.31-7.29,20.31-20.44q0-119.37,0-238.74v-4.15Zm155.53-47.8H352.77v23.49h95.34Z" transform="translate(-232.71 -221.43)"/><path d="M348.68,424.91q0-35.73,0-71.47a11.87,11.87,0,0,1,22.81-4.94,16,16,0,0,1,1.07,5.82q.09,70.73,0,141.45c0,7.66-5,13.06-11.87,13.13-7.06.08-12.05-5.37-12.06-13.26Q348.65,460.27,348.68,424.91Z" transform="translate(-232.71 -221.43)"/><path d="M452.07,425.08q0,35.54,0,71.09c0,6.9-4.43,12-10.72,12.68a12.12,12.12,0,0,1-13.16-11c-.08-.87-.06-1.75-.06-2.62q0-70.17,0-140.33c0-5.61,1.82-10.06,7.06-12.53A11.83,11.83,0,0,1,452,353.23c.15,10.47,0,20.95,0,31.43Q452.09,404.87,452.07,425.08Z" transform="translate(-232.71 -221.43)"/></svg>
