<?xml version="1.0" encoding="utf-8"?>
<!-- Generator: Adobe Illustrator 24.0.1, SVG Export Plug-In . SVG Version: 6.00 Build 0)  -->
<svg version="1.1" id="图层_1" xmlns="http://www.w3.org/2000/svg" xmlns:xlink="http://www.w3.org/1999/xlink" x="0px" y="0px"
	 viewBox="0 0 200 200" style="enable-background:new 0 0 200 200;" xml:space="preserve" fill='#6777ef'>
<path d="M110.3,105.4c-6.4-34.5-6.6-55.4-0.6-62.7c9-11,20.5-2.3,26.4,18.1c3.9,13.6-0.1,31-12,52.2L110.3,105.4z M86.5,105.4
	c6.4-34.5,6.6-55.4,0.6-62.7c-9-11-20.5-2.3-26.4,18.1c-3.9,13.6,0.1,31,12,52.2L86.5,105.4z"/>
<path d="M100.2,82.8c35.6,0,61.6,49.2,49.8,64.4c-11.8,15.2-86.5,17-99.6,0S64.6,82.8,100.2,82.8z"/>
</svg>
