<svg t="1763289153056" class="icon" viewBox="0 0 1024 1024" version="1.1" xmlns="http://www.w3.org/2000/svg" p-id="4700" width="200" height="200"><path d="M422.2 500.2l-107.4-89.5-17.8 17.9 107.4 214.7L910.1 312c31.1 51.2 48.9 108.9 48.9 170.3C959 689.8 758.8 858 511.7 858c-61 0-119.1-10.3-172.1-28.9-23.6 14.8-79.8 49.9-110.8 69.3-17.2 11.1-18.9-1-18.4-12.5 3.6-32.6 9.8-87.9 13-116.6-97.1-68.9-159-171.9-159-287 0-207.5 200.3-375.8 447.3-375.8 153.6 0 289 65.1 369.6 164.1L422.2 500.2z" fill="#38B035" p-id="4701"></path></svg>
